<svg width="36" height="36" viewBox="0 0 36 36" fill="none" xmlns="http://www.w3.org/2000/svg">
<path d="M35.4375 18C35.4375 8.36719 27.6328 0.5625 18 0.5625C8.36719 0.5625 0.5625 8.36719 0.5625 18C0.5625 27.6328 8.36719 35.4375 18 35.4375C27.6328 35.4375 35.4375 27.6328 35.4375 18ZM3.9375 18C3.9375 10.2305 10.2305 3.9375 18 3.9375C25.7695 3.9375 32.0625 10.2305 32.0625 18C32.0625 25.7695 25.7695 32.0625 18 32.0625C10.2305 32.0625 3.9375 25.7695 3.9375 18ZM9 19.4062V16.5938C9 16.1297 9.37969 15.75 9.84375 15.75H18V11.0391C18 10.2867 18.907 9.91406 19.4414 10.4414L26.4023 17.4023C26.7328 17.7328 26.7328 18.2672 26.4023 18.5977L19.4414 25.5586C18.907 26.093 18 25.7133 18 24.9609V20.25H9.84375C9.37969 20.25 9 19.8703 9 19.4062Z" fill="#D94545"/>
</svg>
